<svg width="412" height="654" viewBox="0 0 412 654" fill="none" xmlns="http://www.w3.org/2000/svg">
<circle cx="205.5" cy="296.559" r="139.74" stroke="white" stroke-opacity="0.1"/>
<circle cx="205.499" cy="296.559" r="199.843" stroke="white" stroke-opacity="0.1"/>
<path d="M135.993 289.01C137.923 287.079 141.053 287.079 142.983 289.01C144.913 290.94 144.913 294.069 142.983 295.999L132.498 306.484C130.568 308.415 127.438 308.415 125.508 306.484C123.578 304.554 123.578 301.424 125.508 299.494L135.993 289.01Z" fill="white"/>
<path fill-rule="evenodd" clip-rule="evenodd" d="M132.155 276.777C138.525 270.408 148.853 270.408 155.223 276.777C161.592 283.147 161.592 293.475 155.223 299.845L139.845 315.223C133.475 321.592 123.147 321.592 116.777 315.223C110.408 308.853 110.408 298.525 116.777 292.155L132.155 276.777ZM151.728 280.272C147.288 275.833 140.09 275.833 135.65 280.272L120.272 295.65C115.833 300.09 115.833 307.288 120.272 311.728C124.712 316.167 131.91 316.167 136.35 311.728L151.728 296.35C156.167 291.91 156.167 284.712 151.728 280.272Z" fill="white"/>
<path d="M274.805 287.206H279.329V289.984C280.464 288.938 281.734 288.132 283.137 287.564C284.571 286.967 286.109 286.668 287.752 286.668C289.454 286.668 291.052 286.997 292.545 287.654C294.069 288.311 295.383 289.207 296.488 290.342C297.623 291.447 298.519 292.761 299.176 294.284C299.833 295.778 300.161 297.391 300.161 299.123C300.161 300.825 299.833 302.438 299.176 303.961C298.519 305.455 297.623 306.769 296.488 307.904C295.383 309.009 294.069 309.89 292.545 310.547C291.052 311.204 289.454 311.532 287.752 311.532C286.109 311.532 284.571 311.249 283.137 310.681C281.734 310.084 280.464 309.263 279.329 308.217V320H274.805V287.206ZM287.483 307.769C288.618 307.769 289.678 307.545 290.664 307.097C291.649 306.619 292.516 305.992 293.262 305.216C294.009 304.439 294.591 303.528 295.009 302.483C295.428 301.437 295.637 300.317 295.637 299.123C295.637 297.928 295.428 296.808 295.009 295.763C294.591 294.688 294.009 293.762 293.262 292.985C292.516 292.209 291.649 291.596 290.664 291.148C289.678 290.671 288.618 290.432 287.483 290.432C286.378 290.432 285.318 290.671 284.302 291.148C283.317 291.596 282.451 292.209 281.704 292.985C280.987 293.762 280.405 294.688 279.957 295.763C279.539 296.808 279.329 297.928 279.329 299.123C279.329 300.317 279.539 301.437 279.957 302.483C280.405 303.528 280.987 304.439 281.704 305.216C282.451 305.992 283.317 306.619 284.302 307.097C285.318 307.545 286.378 307.769 287.483 307.769Z" fill="white"/>
<path d="M269.539 287.207V310.995H264.969V287.207H269.539ZM264.611 280.263C264.611 279.546 264.865 278.934 265.373 278.426C265.88 277.918 266.508 277.664 267.254 277.664C267.971 277.664 268.583 277.918 269.091 278.426C269.629 278.934 269.897 279.546 269.897 280.263C269.897 281.009 269.629 281.636 269.091 282.144C268.583 282.652 267.971 282.906 267.254 282.906C266.508 282.906 265.88 282.652 265.373 282.144C264.865 281.636 264.611 281.009 264.611 280.263Z" fill="white"/>
<path d="M255.161 278.202H259.686V310.995H255.161V278.202Z" fill="white"/>
<path d="M230.237 299.123C230.237 297.391 230.565 295.778 231.222 294.284C231.879 292.761 232.76 291.447 233.865 290.342C235 289.207 236.314 288.311 237.808 287.654C239.331 286.997 240.959 286.668 242.691 286.668C244.632 286.668 246.409 287.087 248.022 287.923C249.665 288.729 251.054 289.819 252.189 291.193L249.187 294.24C248.47 293.105 247.544 292.194 246.409 291.507C245.274 290.79 244.035 290.432 242.691 290.432C241.586 290.432 240.556 290.671 239.6 291.148C238.644 291.596 237.808 292.209 237.091 292.985C236.374 293.762 235.807 294.688 235.389 295.763C234.97 296.808 234.761 297.943 234.761 299.168C234.761 300.362 234.97 301.497 235.389 302.572C235.807 303.618 236.374 304.529 237.091 305.305C237.808 306.082 238.644 306.709 239.6 307.187C240.556 307.635 241.586 307.859 242.691 307.859C244.035 307.859 245.274 307.515 246.409 306.828C247.544 306.112 248.47 305.186 249.187 304.051L252.189 307.052C251.054 308.426 249.665 309.516 248.022 310.323C246.38 311.129 244.602 311.532 242.691 311.532C240.959 311.532 239.331 311.204 237.808 310.547C236.314 309.89 235 309.009 233.865 307.904C232.76 306.769 231.879 305.455 231.222 303.961C230.565 302.438 230.237 300.825 230.237 299.123Z" fill="white"/>
<path d="M212.985 287.206H217.51V289.088C218.316 288.311 219.197 287.714 220.153 287.296C221.139 286.877 222.169 286.668 223.244 286.668C224.678 286.668 226.052 286.982 227.366 287.609C228.71 288.207 229.845 289.117 230.771 290.342C230.113 290.85 229.456 291.402 228.799 292C228.142 292.597 227.62 293.06 227.231 293.388C226.664 292.612 226.007 292.015 225.26 291.596C224.513 291.178 223.737 290.939 222.931 290.88C221.796 290.82 220.75 291.059 219.795 291.596C218.869 292.104 218.107 292.851 217.51 293.836V310.995H212.985V287.206Z" fill="white"/>
<path d="M207.719 287.207V310.995H203.15V287.207H207.719ZM202.791 280.263C202.791 279.546 203.045 278.934 203.553 278.426C204.061 277.918 204.688 277.664 205.435 277.664C206.151 277.664 206.764 277.918 207.271 278.426C207.809 278.934 208.078 279.546 208.078 280.263C208.078 281.009 207.809 281.636 207.271 282.144C206.764 282.652 206.151 282.906 205.435 282.906C204.688 282.906 204.061 282.652 203.553 282.144C203.045 281.636 202.791 281.009 202.791 280.263Z" fill="white"/>
<path d="M171.201 310.996L183.879 277.978H187.15L199.828 310.996H194.945L192.167 303.693H178.862L176.084 310.996H171.201ZM180.43 299.661H190.599L185.492 286.401L180.43 299.661Z" fill="white"/>
</svg>
